<?xml version="1.0" encoding="iso-8859-1"?>
<!-- Generator: Adobe Illustrator 16.0.0, SVG Export Plug-In . SVG Version: 6.00 Build 0)  -->
<!DOCTYPE svg PUBLIC "-//W3C//DTD SVG 1.1//EN" "http://www.w3.org/Graphics/SVG/1.1/DTD/svg11.dtd">
<svg xmlns="http://www.w3.org/2000/svg" xmlns:xlink="http://www.w3.org/1999/xlink" version="1.1" id="Capa_1" x="0px" y="0px" width="512px" height="512px" viewBox="0 0 190.096 190.097" style="enable-background:new 0 0 190.096 190.097;" xml:space="preserve">
<g>
	<path d="M186.892,98.951c-1.442-18.705,1.527-37.454-0.301-56.096c-2.507-25.571-27.609-33.609-49.203-37.623   c-30.1-5.595-62.021-7.032-92.346-2.7C32.035,4.389,2.362,13.938,11.147,31.83C7.556,66.303-0.156,100.172,0.879,135.092   c0.796,26.836,10.029,38.648,35.05,45.559c31.718,8.76,66.757,10.441,99.449,8.976c26.147-1.172,46.476-4.653,52.114-33.136   C191.192,137.808,188.339,117.731,186.892,98.951z M37.389,133.479c0.198-0.472,0.385-0.953,0.444-1.495   c0.345-3.133,0.522-6.26,0.763-9.39c0.195,0.031,0.398-0.013,0.597-0.006c0.09,4.96,0.45,9.929,1.058,14.893   C39.257,136.19,38.343,134.813,37.389,133.479z M75.718,140.709c-7.602-0.685-15.294-0.835-21.914,0.688   c-0.474-2.585-0.902-5.21-1.249-7.885c0.602-17.248,1.713-34.478,1.966-51.736c0.43-1.341,0.815-2.694,1.299-4.021   c5.665,0.266,11.72,0.773,17.805,1.075c1.682,10.12,2.345,20.283,2.538,30.468C75.609,119.742,75.652,130.247,75.718,140.709z    M70.367,63.031c-0.507,0.48-0.853,0.994-1.099,1.518c-0.552-0.881-1.447-1.52-2.706-1.445   c-8.336,0.497-16.175-3.973-16.712-12.937c-0.476-7.937,5.849-15.538,13.856-16.046c5.913-0.375,10.955,3.457,13.549,8.505   C81.084,50.078,75.6,58.085,70.367,63.031z M147.464,130.657c0.028,0.085,0.08,0.141,0.112,0.222   c0.07,4.543,0.314,9.076,0.95,13.564c-6.919-1.036-14.237-1.248-21.66-1.16c1.727-14.805,0.759-30.589-4.591-44.146   c-1.443-3.658-6.896-5.378-9.067-1.186c-7.323,14.14-5.865,30.217-3.858,45.581c-3.724,0.004-7.402-0.051-10.957-0.303   c-3.505-0.249-7.498-0.757-11.718-1.287c0.387-17.533,0.9-35.079-0.796-52.501c0.233-3.484,0.532-6.973,0.951-10.468   c6.979-0.283,13.639-1.31,19.398-3.806c-0.259,3.578-0.518,7.154-0.718,10.737c-0.255,4.545,6.769,6.612,8.766,2.374   c3.29-6.981,8.864-18.717,18.393-14.311c7.394,3.418,12.002,12.241,15.532,19.107c0.318,0.618,0.61,1.241,0.911,1.862   c-0.604,5.974-0.807,12.017-1.07,17.536C146.946,118.808,145.75,125.485,147.464,130.657z M168.731,171.897   c-2.949,1.995-6.395,3.48-10.152,4.585c0.919-0.408,1.843-0.782,2.757-1.223c0.838-0.405,1.425-1.085,1.839-1.868   c0.555,0.038,1.13,0.012,1.739-0.166c1.406-0.409,2.698-0.894,3.932-1.417C168.805,171.836,168.771,171.871,168.731,171.897z" fill="#FFFFFF"/>
</g>
<g>
</g>
<g>
</g>
<g>
</g>
<g>
</g>
<g>
</g>
<g>
</g>
<g>
</g>
<g>
</g>
<g>
</g>
<g>
</g>
<g>
</g>
<g>
</g>
<g>
</g>
<g>
</g>
<g>
</g>
</svg>
