<?xml version="1.0" encoding="iso-8859-1"?>
<!-- Generator: Adobe Illustrator 16.0.0, SVG Export Plug-In . SVG Version: 6.00 Build 0)  -->
<!DOCTYPE svg PUBLIC "-//W3C//DTD SVG 1.1//EN" "http://www.w3.org/Graphics/SVG/1.1/DTD/svg11.dtd">
<svg xmlns="http://www.w3.org/2000/svg" xmlns:xlink="http://www.w3.org/1999/xlink" version="1.1" id="Capa_1" x="0px" y="0px" width="512px" height="512px" viewBox="0 0 193.971 193.971" style="enable-background:new 0 0 193.971 193.971;" xml:space="preserve">
<g>
	<path d="M187.773,25.738C180.016,0.164,156.417,4.05,134.423,4.136c-30.364,0.118-72.729-10.415-99.84,7.654   C15.972,24.194,8.613,51.167,4.235,71.591c-5.661,26.405-5.991,54.968,1.113,81.099c4.849,17.838,20.944,41.25,41.429,37.568   c13.169,2.614,26.393,2.883,39.954,2.205c17.205-0.857,37.38-1.175,53.688-6.918c0.476-0.168,0.872-0.47,1.226-0.817   c4.985-0.648,9.978-1.423,14.987-2.462c24.165-5.01,28.784-27.913,31.646-49.123C193.107,97.335,198.439,60.887,187.773,25.738z    M19.76,57.255c-0.07,0.365-0.072,0.732-0.03,1.094c-0.566,2.887-1.129,5.774-1.622,8.662c-0.085,0.177-0.192,0.325-0.249,0.538   c-1.452,5.482-2.758,10.975-3.959,16.476c-0.036,0.027-0.077,0.048-0.112,0.076c1.136-7.404,2.49-14.011,3.791-19.161   c0.654-2.587,1.432-5.362,2.305-8.196C19.849,56.92,19.793,57.078,19.76,57.255z M39.851,154.568   c-0.404-0.771-0.785-1.556-1.214-2.308c0.717,0.265,1.413,0.56,2.097,0.879c1.517,1.88,2.964,3.812,4.356,5.785   C43.244,157.58,41.51,156.114,39.851,154.568z M62.407,39.02c-0.262-0.759-0.514-1.521-0.751-2.288   c1.627-0.659,3.25-1.327,4.879-1.98C65.23,36.222,63.862,37.651,62.407,39.02z M67.601,54.588c1.712-2.022,3.317-4.099,4.84-6.227   c0.398-0.287,0.805-0.564,1.195-0.861c-1.526,2.293-2.955,4.663-4.346,7.062C68.727,54.57,68.164,54.582,67.601,54.588z    M86.524,118.673c0.099-2.451,0.26-4.89,0.244-7.365c-0.006-0.848-0.3-1.467-0.714-1.932c0.691-0.029,1.402-0.017,2.078-0.076   C87.4,112.395,86.91,115.527,86.524,118.673z M136.953,97.347c-3.949,0.181-4.693,4.772-2.338,6.755   c-2.354,7.444-2.055,15.348-2.424,23.36c-0.567,12.349-0.238,24.707,0.449,37.043c-11.861,0.906-23.769,2.078-35.68,3.299   c0.833-6.195-0.582-13.76-0.684-19.056c-0.237-12.319-0.821-24.978,1.026-37.202c0.251-1.662-0.018-3.211-1.049-4.387   c2.788-2.021,2.407-6.13-1.18-7.549c-6.269-2.478-14.891-1.585-22.236-1.229c-1.459-7.229-1.418-15.354,0.112-22.544   c5.315-0.307,10.627-0.773,15.931-1.171c2.923-0.219,4.073-2.723,3.541-4.819c0.094-0.166,0.213-0.322,0.281-0.498   c1.735-4.509,1.975-9.196,3.369-13.827c2.524-8.388,9.678-15.302,16.427-20.41c12.78-9.676,29.104-12.688,44.617-10.157   c0.68,7.384,1.821,14.688,2.782,22.029c-1.943-0.136-3.918-0.06-5.67-0.028c-5.775,0.107-11.504,1.062-17.274,1.251   c-2.64,0.087-4.951,2.166-4.907,4.907c0.066,4.184,1.062,8.453,1.535,12.651l0.001,0.002c-1.701,2.5-0.614,6.735,3.371,6.86   c4.534,0.142,9.063,0.242,13.599,0.114c2.334-0.066,5.254-0.128,7.977-0.607c-0.809,3.792-0.746,7.902-0.889,11.715   c-0.154,4.119-0.152,8.317,0.027,12.502c-1.637,0.084-3.275,0.201-4.898,0.275C147.497,96.867,142.225,97.107,136.953,97.347z    M158.438,113.46c-0.158-1.563-0.24-3.109-0.431-4.682c-0.149-1.245-0.993-2.232-2.026-2.796c0.832,0.054,1.664,0.116,2.496,0.144   c0.047,0.375,0.071,0.756,0.121,1.129c0.121,0.89,0.598,1.555,1.244,2.008C159.357,110.662,158.875,112.062,158.438,113.46z    M175.889,136.058c-1.201,8.873-3.205,15.681-6.301,20.924c2.311-7.234,4.466-14.477,6.417-21.746   C175.967,135.505,175.924,135.786,175.889,136.058z" fill="#FFFFFF"/>
</g>
<g>
</g>
<g>
</g>
<g>
</g>
<g>
</g>
<g>
</g>
<g>
</g>
<g>
</g>
<g>
</g>
<g>
</g>
<g>
</g>
<g>
</g>
<g>
</g>
<g>
</g>
<g>
</g>
<g>
</g>
</svg>
